<!DOCTYPE svg PUBLIC "-//W3C//DTD SVG 1.1//EN" "http://www.w3.org/Graphics/SVG/1.1/DTD/svg11.dtd">

<!-- Uploaded to: SVG Repo, www.svgrepo.com, Transformed by: SVG Repo Mixer Tools -->
<svg fill="#ffffff" width="20px" height="20px" viewBox="0 0 90 70" version="1.1" xml:space="preserve" xmlns="http://www.w3.org/2000/svg" xmlns:xlink="http://www.w3.org/1999/xlink" stroke="#ffffff">

<g id="SVGRepo_bgCarrier" stroke-width="0"/>

<g id="SVGRepo_tracerCarrier" stroke-linecap="round" stroke-linejoin="round"/>

<g id="SVGRepo_iconCarrier"> <g id="Grid"/> <g id="_x31_"/> <g id="_x32_"/> <g id="_x33_"/> <g id="_x34_"> <path d="M61.9,62.3c-0.4,0-0.8-0.1-1.1-0.4L34.1,35.2c-0.2-0.2-0.4-0.5-0.4-0.8l-2.1-13.1c-0.1-0.5,0.1-1,0.4-1.3 c0.3-0.3,0.8-0.5,1.3-0.4l13.1,2.1c0.3,0,0.6,0.2,0.8,0.4l26.8,26.8c0.3,0.3,0.4,0.7,0.4,1.1s-0.2,0.8-0.4,1.1l-11,11 C62.7,62.2,62.3,62.3,61.9,62.3z M36.6,33.4l25.3,25.3l8.9-8.9L45.4,24.5l-10.5-1.7L36.6,33.4z M64.6,75.6c-0.3,0-0.6-0.1-0.9-0.3 l-9.2-6.7c-0.4-0.3-0.6-0.7-0.6-1.1c0-0.4,0.1-0.9,0.4-1.2l24.1-24.1c0.3-0.3,0.7-0.5,1.2-0.4c0.4,0,0.8,0.3,1.1,0.6l6.7,9.2 c0.4,0.6,0.4,1.4-0.2,1.9L65.7,75.1C65.4,75.4,65,75.6,64.6,75.6z M57.7,67.2l6.8,4.9l19.7-19.7l-4.9-6.8L57.7,67.2z M79.5,75.7 c-0.4,0-0.8-0.1-1.1-0.4l-7.5-7.5c-0.3-0.3-0.4-0.7-0.4-1.1s0.2-0.8,0.4-1.1l6.7-6.7c0.3-0.3,0.7-0.4,1.1-0.4c0,0,0,0,0,0 c0.4,0,0.8,0.2,1.1,0.4l7.5,7.5c0.6,0.6,0.6,1.5,0,2.1l-6.7,6.7C80.3,75.5,79.9,75.7,79.5,75.7z M74.1,66.7l5.4,5.4l4.6-4.6 l-5.4-5.4L74.1,66.7z M84.3,80.5c-0.4,0-0.8-0.1-1.1-0.4l-4.8-4.8c-0.6-0.6-0.6-1.5,0-2.1l6.7-6.7c0.6-0.6,1.5-0.6,2.1,0l4.8,4.8 c0.6,0.6,0.6,1.5,0,2.1L85.3,80C85,80.3,84.7,80.5,84.3,80.5z M81.6,74.2l2.7,2.7l4.6-4.6l-2.7-2.7L81.6,74.2z M38.1,62.3 c-0.4,0-0.8-0.1-1.1-0.4l-11-11c-0.3-0.3-0.4-0.7-0.4-1.1s0.2-0.8,0.4-1.1L38,36.9c0.6-0.6,1.5-0.6,2.1,0l11,11 c0.6,0.6,0.6,1.5,0,2.1L39.2,61.9C38.9,62.2,38.5,62.3,38.1,62.3z M29.2,49.9l8.9,8.9l9.8-9.8L39,40.1L29.2,49.9z M61,39.5 c-0.4,0-0.8-0.1-1.1-0.4l-11-11c-0.6-0.6-0.6-1.5,0-2.1l3.9-3.9c0.2-0.2,0.5-0.4,0.8-0.4l13.1-2.1c0.5-0.1,1,0.1,1.3,0.4 c0.3,0.3,0.5,0.8,0.4,1.3l-2.1,13.1c0,0.3-0.2,0.6-0.4,0.8L62,39C61.7,39.3,61.4,39.5,61,39.5z M52.1,27l8.9,8.9l2.5-2.5l1.7-10.5 l-10.5,1.7L52.1,27z M35.4,75.6c-0.4,0-0.8-0.1-1.1-0.4L12.9,53.6c-0.5-0.5-0.6-1.3-0.2-1.9l6.7-9.2c0.3-0.4,0.7-0.6,1.1-0.6 c0.4,0,0.9,0.1,1.2,0.4l24.1,24.1c0.3,0.3,0.5,0.7,0.4,1.2c0,0.4-0.3,0.8-0.6,1.1l-9.2,6.7C36,75.5,35.7,75.6,35.4,75.6z M15.9,52.4l19.7,19.7l6.8-4.9L20.8,45.6L15.9,52.4z M20.5,75.7c-0.4,0-0.8-0.1-1.1-0.4l-6.7-6.7c-0.6-0.6-0.6-1.5,0-2.1l7.5-7.5 c0.3-0.3,0.7-0.4,1.1-0.4c0,0,0,0,0,0c0.4,0,0.8,0.2,1.1,0.4l6.7,6.7c0.3,0.3,0.4,0.7,0.4,1.1s-0.2,0.8-0.4,1.1l-7.5,7.5 C21.3,75.5,20.9,75.7,20.5,75.7z M15.9,67.5l4.6,4.6l5.4-5.4l-4.6-4.6L15.9,67.5z M15.7,80.5c-0.4,0-0.8-0.1-1.1-0.4l-6.7-6.7 c-0.6-0.6-0.6-1.5,0-2.1l4.8-4.8c0.6-0.6,1.5-0.6,2.1,0l6.7,6.7c0.6,0.6,0.6,1.5,0,2.1L16.8,80C16.5,80.3,16.1,80.5,15.7,80.5z M11.1,72.2l4.6,4.6l2.7-2.7l-4.6-4.6L11.1,72.2z"/> </g> <g id="_x35_"/> <g id="_x36_"/> <g id="_x37_"/> <g id="_x38_"/> <g id="_x39_"/> <g id="_x31_0"/> <g id="_x31_1"/> <g id="_x31_2"/> <g id="_x31_3"/> <g id="_x31_4"/> <g id="_x31_5"/> <g id="_x31_6"/> <g id="_x31_7"/> <g id="_x31_8"/> <g id="_x31_9"/> <g id="_x32_0"/> <g id="_x32_1"/> <g id="_x32_2"/> <g id="_x32_3"/> <g id="_x32_4"/> <g id="_x32_5"/> </g>

</svg>